<?xml version="1.0" encoding="UTF-8" standalone="no"?>
<!DOCTYPE svg PUBLIC "-//W3C//DTD SVG 1.1//EN"
 "http://www.w3.org/Graphics/SVG/1.1/DTD/svg11.dtd">
<!-- Generated by graphviz version 2.43.0 (0)
 -->
<!-- Title: prbs/asg.h Pages: 1 -->
<svg width="164pt" height="140pt"
 viewBox="0.00 0.00 163.50 140.00" xmlns="http://www.w3.org/2000/svg" xmlns:xlink="http://www.w3.org/1999/xlink">
<g id="graph0" class="graph" transform="scale(1 1) rotate(0) translate(4 136)">
<title>prbs/asg.h</title>
<!-- Node1 -->
<g id="node1" class="node">
<title>Node1</title>
<g id="a_node1"><a xlink:title="Interface and usage of the alternating step prbs generator.">
<polygon fill="#bfbfbf" stroke="black" points="42.5,-112.5 42.5,-131.5 109.5,-131.5 109.5,-112.5 42.5,-112.5"/>
<text text-anchor="middle" x="76" y="-119.5" font-family="Helvetica,sans-Serif" font-size="10.00">prbs/asg.h</text>
</a>
</g>
</g>
<!-- Node2 -->
<g id="node2" class="node">
<title>Node2</title>
<g id="a_node2"><a xlink:href="asg_8c.html" target="_top" xlink:title="Implementation of the asg prbs generator.">
<polygon fill="none" stroke="black" points="0,-56.5 0,-75.5 66,-75.5 66,-56.5 0,-56.5"/>
<text text-anchor="middle" x="33" y="-63.5" font-family="Helvetica,sans-Serif" font-size="10.00">prbs/asg.c</text>
</a>
</g>
</g>
<!-- Node1&#45;&gt;Node2 -->
<g id="edge1" class="edge">
<title>Node1&#45;&gt;Node2</title>
<path fill="none" stroke="midnightblue" d="M62.58,-104.14C55.09,-94.74 46.06,-83.4 39.97,-75.75"/>
<polygon fill="midnightblue" stroke="midnightblue" points="59.93,-106.44 68.9,-112.08 65.41,-102.08 59.93,-106.44"/>
</g>
<!-- Node3 -->
<g id="node3" class="node">
<title>Node3</title>
<g id="a_node3"><a xlink:href="prbs_8h.html" target="_top" xlink:title="Interface and usage of prbs generators.">
<polygon fill="none" stroke="black" points="84.5,-56.5 84.5,-75.5 155.5,-75.5 155.5,-56.5 84.5,-56.5"/>
<text text-anchor="middle" x="120" y="-63.5" font-family="Helvetica,sans-Serif" font-size="10.00">prbs/prbs.h</text>
</a>
</g>
</g>
<!-- Node1&#45;&gt;Node3 -->
<g id="edge2" class="edge">
<title>Node1&#45;&gt;Node3</title>
<path fill="none" stroke="midnightblue" d="M89.73,-104.14C97.4,-94.74 106.63,-83.4 112.87,-75.75"/>
<polygon fill="midnightblue" stroke="midnightblue" points="86.87,-102.12 83.27,-112.08 92.3,-106.54 86.87,-102.12"/>
</g>
<!-- Node4 -->
<g id="node4" class="node">
<title>Node4</title>
<g id="a_node4"><a xlink:href="prbs_8c.html" target="_top" xlink:title="PRBS library descriptor.">
<polygon fill="none" stroke="black" points="85,-0.5 85,-19.5 155,-19.5 155,-0.5 85,-0.5"/>
<text text-anchor="middle" x="120" y="-7.5" font-family="Helvetica,sans-Serif" font-size="10.00">prbs/prbs.c</text>
</a>
</g>
</g>
<!-- Node3&#45;&gt;Node4 -->
<g id="edge3" class="edge">
<title>Node3&#45;&gt;Node4</title>
<path fill="none" stroke="midnightblue" d="M120,-45.8C120,-36.91 120,-26.78 120,-19.75"/>
<polygon fill="midnightblue" stroke="midnightblue" points="116.5,-46.08 120,-56.08 123.5,-46.08 116.5,-46.08"/>
</g>
</g>
</svg>
