<?xml version="1.0" encoding="UTF-8" standalone="no"?>
<!DOCTYPE svg PUBLIC "-//W3C//DTD SVG 1.1//EN"
 "http://www.w3.org/Graphics/SVG/1.1/DTD/svg11.dtd">
<!-- Generated by graphviz version 2.43.0 (0)
 -->
<!-- Title: prbs/asg.c Pages: 1 -->
<svg width="74pt" height="196pt"
 viewBox="0.00 0.00 74.00 196.00" xmlns="http://www.w3.org/2000/svg" xmlns:xlink="http://www.w3.org/1999/xlink">
<g id="graph0" class="graph" transform="scale(1 1) rotate(0) translate(4 192)">
<title>prbs/asg.c</title>
<!-- Node1 -->
<g id="node1" class="node">
<title>Node1</title>
<g id="a_node1"><a xlink:title="Implementation of the asg prbs generator.">
<polygon fill="#bfbfbf" stroke="black" points="0,-168.5 0,-187.5 66,-187.5 66,-168.5 0,-168.5"/>
<text text-anchor="middle" x="33" y="-175.5" font-family="Helvetica,sans-Serif" font-size="10.00">prbs/asg.c</text>
</a>
</g>
</g>
<!-- Node2 -->
<g id="node2" class="node">
<title>Node2</title>
<g id="a_node2"><a xlink:href="asg_8h.html" target="_top" xlink:title="Interface and usage of the alternating step prbs generator.">
<polygon fill="none" stroke="black" points="11.5,-112.5 11.5,-131.5 54.5,-131.5 54.5,-112.5 11.5,-112.5"/>
<text text-anchor="middle" x="33" y="-119.5" font-family="Helvetica,sans-Serif" font-size="10.00">asg.h</text>
</a>
</g>
</g>
<!-- Node1&#45;&gt;Node2 -->
<g id="edge1" class="edge">
<title>Node1&#45;&gt;Node2</title>
<path fill="none" stroke="midnightblue" d="M33,-168.08C33,-161.01 33,-150.86 33,-141.99"/>
<polygon fill="midnightblue" stroke="midnightblue" points="36.5,-141.75 33,-131.75 29.5,-141.75 36.5,-141.75"/>
</g>
<!-- Node3 -->
<g id="node3" class="node">
<title>Node3</title>
<g id="a_node3"><a xlink:href="lfsr_8h.html" target="_top" xlink:title="Interface and usage of the lfsr prbs generator.">
<polygon fill="none" stroke="black" points="12.5,-56.5 12.5,-75.5 53.5,-75.5 53.5,-56.5 12.5,-56.5"/>
<text text-anchor="middle" x="33" y="-63.5" font-family="Helvetica,sans-Serif" font-size="10.00">lfsr.h</text>
</a>
</g>
</g>
<!-- Node2&#45;&gt;Node3 -->
<g id="edge2" class="edge">
<title>Node2&#45;&gt;Node3</title>
<path fill="none" stroke="midnightblue" d="M33,-112.08C33,-105.01 33,-94.86 33,-85.99"/>
<polygon fill="midnightblue" stroke="midnightblue" points="36.5,-85.75 33,-75.75 29.5,-85.75 36.5,-85.75"/>
</g>
<!-- Node4 -->
<g id="node4" class="node">
<title>Node4</title>
<g id="a_node4"><a xlink:title=" ">
<polygon fill="none" stroke="#bfbfbf" points="6.5,-0.5 6.5,-19.5 59.5,-19.5 59.5,-0.5 6.5,-0.5"/>
<text text-anchor="middle" x="33" y="-7.5" font-family="Helvetica,sans-Serif" font-size="10.00">stdint.h</text>
</a>
</g>
</g>
<!-- Node3&#45;&gt;Node4 -->
<g id="edge3" class="edge">
<title>Node3&#45;&gt;Node4</title>
<path fill="none" stroke="midnightblue" d="M33,-56.08C33,-49.01 33,-38.86 33,-29.99"/>
<polygon fill="midnightblue" stroke="midnightblue" points="36.5,-29.75 33,-19.75 29.5,-29.75 36.5,-29.75"/>
</g>
</g>
</svg>
