<?xml version="1.0" encoding="UTF-8" standalone="no"?>
<!DOCTYPE svg PUBLIC "-//W3C//DTD SVG 1.1//EN"
 "http://www.w3.org/Graphics/SVG/1.1/DTD/svg11.dtd">
<!-- Generated by graphviz version 2.43.0 (0)
 -->
<!-- Title: lfsr64_vInit Pages: 1 -->
<svg width="209pt" height="66pt"
 viewBox="0.00 0.00 209.00 66.00" xmlns="http://www.w3.org/2000/svg" xmlns:xlink="http://www.w3.org/1999/xlink">
<g id="graph0" class="graph" transform="scale(1 1) rotate(0) translate(4 62)">
<title>lfsr64_vInit</title>
<!-- Node1 -->
<g id="node1" class="node">
<title>Node1</title>
<g id="a_node1"><a xlink:title="Initialize a lfsr64_t structure using the default seed, LFSR64_SEED.">
<polygon fill="#bfbfbf" stroke="black" points="130,-19.5 130,-38.5 201,-38.5 201,-19.5 130,-19.5"/>
<text text-anchor="middle" x="165.5" y="-26.5" font-family="Helvetica,sans-Serif" font-size="10.00">lfsr64_vInit</text>
</a>
</g>
</g>
<!-- Node2 -->
<g id="node2" class="node">
<title>Node2</title>
<g id="a_node2"><a xlink:href="asg_8c.html#ae052e66b786e533331b86c1fd182601e" target="_top" xlink:title="Initialize a asg_lfsr64_t structure using the default seeds.">
<polygon fill="none" stroke="black" points="0,-38.5 0,-57.5 94,-57.5 94,-38.5 0,-38.5"/>
<text text-anchor="middle" x="47" y="-45.5" font-family="Helvetica,sans-Serif" font-size="10.00">asg_lfsr64_vInit</text>
</a>
</g>
</g>
<!-- Node1&#45;&gt;Node2 -->
<g id="edge1" class="edge">
<title>Node1&#45;&gt;Node2</title>
<path fill="none" stroke="midnightblue" d="M119.91,-36.27C111.55,-37.64 102.79,-39.06 94.37,-40.44"/>
<polygon fill="midnightblue" stroke="midnightblue" points="120.56,-39.71 129.86,-34.65 119.43,-32.8 120.56,-39.71"/>
</g>
<!-- Node3 -->
<g id="node3" class="node">
<title>Node3</title>
<g id="a_node3"><a xlink:href="sg_8c.html#af8b3fa9ca5379da41d2d6c7037fd6658" target="_top" xlink:title="Initialize a sg_lfsr64_t structure using the default seeds.">
<polygon fill="none" stroke="black" points="3,-0.5 3,-19.5 91,-19.5 91,-0.5 3,-0.5"/>
<text text-anchor="middle" x="47" y="-7.5" font-family="Helvetica,sans-Serif" font-size="10.00">sg_lfsr64_vInit</text>
</a>
</g>
</g>
<!-- Node1&#45;&gt;Node3 -->
<g id="edge2" class="edge">
<title>Node1&#45;&gt;Node3</title>
<path fill="none" stroke="midnightblue" d="M119.95,-21.73C110.58,-20.21 100.71,-18.6 91.39,-17.08"/>
<polygon fill="midnightblue" stroke="midnightblue" points="119.43,-25.2 129.86,-23.35 120.56,-18.29 119.43,-25.2"/>
</g>
</g>
</svg>
