<?xml version="1.0" encoding="UTF-8" standalone="no"?>
<!DOCTYPE svg PUBLIC "-//W3C//DTD SVG 1.1//EN"
 "http://www.w3.org/Graphics/SVG/1.1/DTD/svg11.dtd">
<!-- Generated by graphviz version 2.43.0 (0)
 -->
<!-- Title: prbs/lfsr.h Pages: 1 -->
<svg width="287pt" height="196pt"
 viewBox="0.00 0.00 286.50 196.00" xmlns="http://www.w3.org/2000/svg" xmlns:xlink="http://www.w3.org/1999/xlink">
<g id="graph0" class="graph" transform="scale(1 1) rotate(0) translate(4 192)">
<title>prbs/lfsr.h</title>
<!-- Node1 -->
<g id="node1" class="node">
<title>Node1</title>
<g id="a_node1"><a xlink:title="Interface and usage of the lfsr prbs generator.">
<polygon fill="#bfbfbf" stroke="black" points="104.5,-168.5 104.5,-187.5 169.5,-187.5 169.5,-168.5 104.5,-168.5"/>
<text text-anchor="middle" x="137" y="-175.5" font-family="Helvetica,sans-Serif" font-size="10.00">prbs/lfsr.h</text>
</a>
</g>
</g>
<!-- Node2 -->
<g id="node2" class="node">
<title>Node2</title>
<g id="a_node2"><a xlink:href="asg_8h.html" target="_top" xlink:title="Interface and usage of the alternating step prbs generator.">
<polygon fill="none" stroke="black" points="11.5,-112.5 11.5,-131.5 78.5,-131.5 78.5,-112.5 11.5,-112.5"/>
<text text-anchor="middle" x="45" y="-119.5" font-family="Helvetica,sans-Serif" font-size="10.00">prbs/asg.h</text>
</a>
</g>
</g>
<!-- Node1&#45;&gt;Node2 -->
<g id="edge1" class="edge">
<title>Node1&#45;&gt;Node2</title>
<path fill="none" stroke="midnightblue" d="M113.45,-163.18C96.52,-153.24 74.22,-140.15 59.74,-131.65"/>
<polygon fill="midnightblue" stroke="midnightblue" points="111.82,-166.28 122.22,-168.32 115.37,-160.24 111.82,-166.28"/>
</g>
<!-- Node4 -->
<g id="node4" class="node">
<title>Node4</title>
<g id="a_node4"><a xlink:href="prbs_8h.html" target="_top" xlink:title="Interface and usage of prbs generators.">
<polygon fill="none" stroke="black" points="84.5,-56.5 84.5,-75.5 155.5,-75.5 155.5,-56.5 84.5,-56.5"/>
<text text-anchor="middle" x="120" y="-63.5" font-family="Helvetica,sans-Serif" font-size="10.00">prbs/prbs.h</text>
</a>
</g>
</g>
<!-- Node1&#45;&gt;Node4 -->
<g id="edge6" class="edge">
<title>Node1&#45;&gt;Node4</title>
<path fill="none" stroke="midnightblue" d="M131.85,-158.6C129.75,-150.5 127.48,-140.83 126,-132 122.67,-112.1 121.07,-88.45 120.4,-75.88"/>
<polygon fill="midnightblue" stroke="midnightblue" points="128.52,-159.71 134.51,-168.45 135.28,-157.88 128.52,-159.71"/>
</g>
<!-- Node6 -->
<g id="node6" class="node">
<title>Node6</title>
<g id="a_node6"><a xlink:href="lfsr_8c.html" target="_top" xlink:title="Implementation of the lfsr prbs generator.">
<polygon fill="none" stroke="black" points="135,-112.5 135,-131.5 199,-131.5 199,-112.5 135,-112.5"/>
<text text-anchor="middle" x="167" y="-119.5" font-family="Helvetica,sans-Serif" font-size="10.00">prbs/lfsr.c</text>
</a>
</g>
</g>
<!-- Node1&#45;&gt;Node6 -->
<g id="edge5" class="edge">
<title>Node1&#45;&gt;Node6</title>
<path fill="none" stroke="midnightblue" d="M146.85,-159.27C151.97,-150.05 158.02,-139.17 162.14,-131.75"/>
<polygon fill="midnightblue" stroke="midnightblue" points="143.75,-157.64 141.95,-168.08 149.87,-161.04 143.75,-157.64"/>
</g>
<!-- Node7 -->
<g id="node7" class="node">
<title>Node7</title>
<g id="a_node7"><a xlink:href="sg_8h.html" target="_top" xlink:title="Interface and usage of the shrinking prbs generator.">
<polygon fill="none" stroke="black" points="217.5,-112.5 217.5,-131.5 278.5,-131.5 278.5,-112.5 217.5,-112.5"/>
<text text-anchor="middle" x="248" y="-119.5" font-family="Helvetica,sans-Serif" font-size="10.00">prbs/sg.h</text>
</a>
</g>
</g>
<!-- Node1&#45;&gt;Node7 -->
<g id="edge7" class="edge">
<title>Node1&#45;&gt;Node7</title>
<path fill="none" stroke="midnightblue" d="M164.01,-163.86C184.59,-153.85 212.34,-140.35 230.21,-131.65"/>
<polygon fill="midnightblue" stroke="midnightblue" points="162.3,-160.8 154.83,-168.32 165.36,-167.1 162.3,-160.8"/>
</g>
<!-- Node3 -->
<g id="node3" class="node">
<title>Node3</title>
<g id="a_node3"><a xlink:href="asg_8c.html" target="_top" xlink:title="Implementation of the asg prbs generator.">
<polygon fill="none" stroke="black" points="0,-56.5 0,-75.5 66,-75.5 66,-56.5 0,-56.5"/>
<text text-anchor="middle" x="33" y="-63.5" font-family="Helvetica,sans-Serif" font-size="10.00">prbs/asg.c</text>
</a>
</g>
</g>
<!-- Node2&#45;&gt;Node3 -->
<g id="edge2" class="edge">
<title>Node2&#45;&gt;Node3</title>
<path fill="none" stroke="midnightblue" d="M40.8,-102.1C38.81,-93.14 36.52,-82.86 34.94,-75.75"/>
<polygon fill="midnightblue" stroke="midnightblue" points="37.43,-103.08 43.02,-112.08 44.27,-101.56 37.43,-103.08"/>
</g>
<!-- Node2&#45;&gt;Node4 -->
<g id="edge3" class="edge">
<title>Node2&#45;&gt;Node4</title>
<path fill="none" stroke="midnightblue" d="M65.31,-106.38C78.86,-96.62 96.24,-84.11 107.73,-75.83"/>
<polygon fill="midnightblue" stroke="midnightblue" points="63.12,-103.64 57.05,-112.32 67.21,-109.32 63.12,-103.64"/>
</g>
<!-- Node5 -->
<g id="node5" class="node">
<title>Node5</title>
<g id="a_node5"><a xlink:href="prbs_8c.html" target="_top" xlink:title="PRBS library descriptor.">
<polygon fill="none" stroke="black" points="85,-0.5 85,-19.5 155,-19.5 155,-0.5 85,-0.5"/>
<text text-anchor="middle" x="120" y="-7.5" font-family="Helvetica,sans-Serif" font-size="10.00">prbs/prbs.c</text>
</a>
</g>
</g>
<!-- Node4&#45;&gt;Node5 -->
<g id="edge4" class="edge">
<title>Node4&#45;&gt;Node5</title>
<path fill="none" stroke="midnightblue" d="M120,-45.8C120,-36.91 120,-26.78 120,-19.75"/>
<polygon fill="midnightblue" stroke="midnightblue" points="116.5,-46.08 120,-56.08 123.5,-46.08 116.5,-46.08"/>
</g>
<!-- Node7&#45;&gt;Node4 -->
<g id="edge8" class="edge">
<title>Node7&#45;&gt;Node4</title>
<path fill="none" stroke="midnightblue" d="M218.38,-108.5C194.38,-98.38 161.22,-84.39 140.19,-75.52"/>
<polygon fill="midnightblue" stroke="midnightblue" points="217.14,-111.78 227.72,-112.44 219.86,-105.33 217.14,-111.78"/>
</g>
<!-- Node8 -->
<g id="node8" class="node">
<title>Node8</title>
<g id="a_node8"><a xlink:href="sg_8c.html" target="_top" xlink:title="Implementation of the SG prbs generator.">
<polygon fill="none" stroke="black" points="218,-56.5 218,-75.5 278,-75.5 278,-56.5 218,-56.5"/>
<text text-anchor="middle" x="248" y="-63.5" font-family="Helvetica,sans-Serif" font-size="10.00">prbs/sg.c</text>
</a>
</g>
</g>
<!-- Node7&#45;&gt;Node8 -->
<g id="edge9" class="edge">
<title>Node7&#45;&gt;Node8</title>
<path fill="none" stroke="midnightblue" d="M248,-101.8C248,-92.91 248,-82.78 248,-75.75"/>
<polygon fill="midnightblue" stroke="midnightblue" points="244.5,-102.08 248,-112.08 251.5,-102.08 244.5,-102.08"/>
</g>
</g>
</svg>
