<?xml version="1.0" encoding="UTF-8" standalone="no"?>
<!DOCTYPE svg PUBLIC "-//W3C//DTD SVG 1.1//EN"
 "http://www.w3.org/Graphics/SVG/1.1/DTD/svg11.dtd">
<!-- Generated by graphviz version 2.43.0 (0)
 -->
<!-- Title: lfsr16_bGetNextBit Pages: 1 -->
<svg width="462pt" height="104pt"
 viewBox="0.00 0.00 462.00 104.00" xmlns="http://www.w3.org/2000/svg" xmlns:xlink="http://www.w3.org/1999/xlink">
<g id="graph0" class="graph" transform="scale(1 1) rotate(0) translate(4 100)">
<title>lfsr16_bGetNextBit</title>
<!-- Node1 -->
<g id="node1" class="node">
<title>Node1</title>
<g id="a_node1"><a xlink:title="Get the next bit in the LFSR16 pseudo random binary sequence.">
<polygon fill="#bfbfbf" stroke="black" points="344,-38.5 344,-57.5 454,-57.5 454,-38.5 344,-38.5"/>
<text text-anchor="middle" x="399" y="-45.5" font-family="Helvetica,sans-Serif" font-size="10.00">lfsr16_bGetNextBit</text>
</a>
</g>
</g>
<!-- Node2 -->
<g id="node2" class="node">
<title>Node2</title>
<g id="a_node2"><a xlink:href="asg_8c.html#ac9e65f18aed5e5b6d2fd7ba08ef6d8d0" target="_top" xlink:title="Get the next bit in the ASG16 pseudo random binary sequence.">
<polygon fill="none" stroke="black" points="176,-76.5 176,-95.5 308,-95.5 308,-76.5 176,-76.5"/>
<text text-anchor="middle" x="242" y="-83.5" font-family="Helvetica,sans-Serif" font-size="10.00">asg_lfsr16_bGetNextBit</text>
</a>
</g>
</g>
<!-- Node1&#45;&gt;Node2 -->
<g id="edge1" class="edge">
<title>Node1&#45;&gt;Node2</title>
<path fill="none" stroke="midnightblue" d="M348.89,-60.04C327.24,-65.35 302.15,-71.5 281.83,-76.48"/>
<polygon fill="midnightblue" stroke="midnightblue" points="350.01,-63.37 358.89,-57.59 348.34,-56.57 350.01,-63.37"/>
</g>
<!-- Node4 -->
<g id="node4" class="node">
<title>Node4</title>
<g id="a_node4"><a xlink:href="lfsr_8c.html#a4afa608a79421762ecfb728be48ec1ab" target="_top" xlink:title="Get the next byte in the LFSR16 pseudo random binary sequence.">
<polygon fill="none" stroke="black" points="183,-38.5 183,-57.5 301,-57.5 301,-38.5 183,-38.5"/>
<text text-anchor="middle" x="242" y="-45.5" font-family="Helvetica,sans-Serif" font-size="10.00">lfsr16_cGetNextByte</text>
</a>
</g>
</g>
<!-- Node1&#45;&gt;Node4 -->
<g id="edge3" class="edge">
<title>Node1&#45;&gt;Node4</title>
<path fill="none" stroke="midnightblue" d="M333.6,-48C322.84,-48 311.73,-48 301.14,-48"/>
<polygon fill="midnightblue" stroke="midnightblue" points="333.79,-51.5 343.79,-48 333.79,-44.5 333.79,-51.5"/>
</g>
<!-- Node5 -->
<g id="node5" class="node">
<title>Node5</title>
<g id="a_node5"><a xlink:href="sg_8c.html#abca0ec48ec5c561139136009e3be1143" target="_top" xlink:title="Get the next bit in the SG16 pseudo random binary sequence.">
<polygon fill="none" stroke="black" points="179,-0.5 179,-19.5 305,-19.5 305,-0.5 179,-0.5"/>
<text text-anchor="middle" x="242" y="-7.5" font-family="Helvetica,sans-Serif" font-size="10.00">sg_lfsr16_bGetNextBit</text>
</a>
</g>
</g>
<!-- Node1&#45;&gt;Node5 -->
<g id="edge4" class="edge">
<title>Node1&#45;&gt;Node5</title>
<path fill="none" stroke="midnightblue" d="M348.89,-35.96C327.24,-30.65 302.15,-24.5 281.83,-19.52"/>
<polygon fill="midnightblue" stroke="midnightblue" points="348.34,-39.43 358.89,-38.41 350.01,-32.63 348.34,-39.43"/>
</g>
<!-- Node3 -->
<g id="node3" class="node">
<title>Node3</title>
<g id="a_node3"><a xlink:href="asg_8c.html#a547bf6398e688efb9abf12d764e30f10" target="_top" xlink:title="Get the next byte in the ASG16 pseudo random binary sequence.">
<polygon fill="none" stroke="black" points="0,-76.5 0,-95.5 140,-95.5 140,-76.5 0,-76.5"/>
<text text-anchor="middle" x="70" y="-83.5" font-family="Helvetica,sans-Serif" font-size="10.00">asg_lfsr16_cGetNextByte</text>
</a>
</g>
</g>
<!-- Node2&#45;&gt;Node3 -->
<g id="edge2" class="edge">
<title>Node2&#45;&gt;Node3</title>
<path fill="none" stroke="midnightblue" d="M165.5,-86C157.02,-86 148.41,-86 140.02,-86"/>
<polygon fill="midnightblue" stroke="midnightblue" points="165.76,-89.5 175.76,-86 165.76,-82.5 165.76,-89.5"/>
</g>
<!-- Node6 -->
<g id="node6" class="node">
<title>Node6</title>
<g id="a_node6"><a xlink:href="sg_8c.html#a3f1821a106b41cb8656ebeb8645b776b" target="_top" xlink:title="Get the next byte in the SG16 pseudo random binary sequence.">
<polygon fill="none" stroke="black" points="3,-0.5 3,-19.5 137,-19.5 137,-0.5 3,-0.5"/>
<text text-anchor="middle" x="70" y="-7.5" font-family="Helvetica,sans-Serif" font-size="10.00">sg_lfsr16_cGetNextByte</text>
</a>
</g>
</g>
<!-- Node5&#45;&gt;Node6 -->
<g id="edge5" class="edge">
<title>Node5&#45;&gt;Node6</title>
<path fill="none" stroke="midnightblue" d="M168.37,-10C157.97,-10 147.31,-10 137.04,-10"/>
<polygon fill="midnightblue" stroke="midnightblue" points="168.66,-13.5 178.66,-10 168.66,-6.5 168.66,-13.5"/>
</g>
</g>
</svg>
