<?xml version="1.0" encoding="UTF-8" standalone="no"?>
<!DOCTYPE svg PUBLIC "-//W3C//DTD SVG 1.1//EN"
 "http://www.w3.org/Graphics/SVG/1.1/DTD/svg11.dtd">
<!-- Generated by graphviz version 2.43.0 (0)
 -->
<!-- Title: lfsr64_vAddEntropy Pages: 1 -->
<svg width="290pt" height="66pt"
 viewBox="0.00 0.00 290.00 66.00" xmlns="http://www.w3.org/2000/svg" xmlns:xlink="http://www.w3.org/1999/xlink">
<g id="graph0" class="graph" transform="scale(1 1) rotate(0) translate(4 62)">
<title>lfsr64_vAddEntropy</title>
<!-- Node1 -->
<g id="node1" class="node">
<title>Node1</title>
<g id="a_node1"><a xlink:title="Add entropy to a lfsr64_t structure.">
<polygon fill="#bfbfbf" stroke="black" points="170,-19.5 170,-38.5 282,-38.5 282,-19.5 170,-19.5"/>
<text text-anchor="middle" x="226" y="-26.5" font-family="Helvetica,sans-Serif" font-size="10.00">lfsr64_vAddEntropy</text>
</a>
</g>
</g>
<!-- Node2 -->
<g id="node2" class="node">
<title>Node2</title>
<g id="a_node2"><a xlink:href="asg_8c.html#a1d645d0092ae4964b09453dfd903f099" target="_top" xlink:title="Add entropy to a asg_lfsr64_t structure.">
<polygon fill="none" stroke="black" points="0,-38.5 0,-57.5 134,-57.5 134,-38.5 0,-38.5"/>
<text text-anchor="middle" x="67" y="-45.5" font-family="Helvetica,sans-Serif" font-size="10.00">asg_lfsr64_vAddEntropy</text>
</a>
</g>
</g>
<!-- Node1&#45;&gt;Node2 -->
<g id="edge1" class="edge">
<title>Node1&#45;&gt;Node2</title>
<path fill="none" stroke="midnightblue" d="M159.54,-36.92C151.15,-37.94 142.55,-38.98 134.15,-39.99"/>
<polygon fill="midnightblue" stroke="midnightblue" points="160.14,-40.37 169.65,-35.7 159.3,-33.43 160.14,-40.37"/>
</g>
<!-- Node3 -->
<g id="node3" class="node">
<title>Node3</title>
<g id="a_node3"><a xlink:href="sg_8c.html#a31fba186c445c2d7080733d82f0339f1" target="_top" xlink:title="Add entropy to a sg_lfsr64_t structure.">
<polygon fill="none" stroke="black" points="3,-0.5 3,-19.5 131,-19.5 131,-0.5 3,-0.5"/>
<text text-anchor="middle" x="67" y="-7.5" font-family="Helvetica,sans-Serif" font-size="10.00">sg_lfsr64_vAddEntropy</text>
</a>
</g>
</g>
<!-- Node1&#45;&gt;Node3 -->
<g id="edge2" class="edge">
<title>Node1&#45;&gt;Node3</title>
<path fill="none" stroke="midnightblue" d="M159.57,-21.08C150.17,-19.94 140.51,-18.78 131.16,-17.64"/>
<polygon fill="midnightblue" stroke="midnightblue" points="159.3,-24.57 169.65,-22.3 160.14,-17.63 159.3,-24.57"/>
</g>
</g>
</svg>
