<?xml version="1.0" encoding="UTF-8" standalone="no"?>
<!DOCTYPE svg PUBLIC "-//W3C//DTD SVG 1.1//EN"
 "http://www.w3.org/Graphics/SVG/1.1/DTD/svg11.dtd">
<!-- Generated by graphviz version 2.43.0 (0)
 -->
<!-- Title: prbs/prbs.h Pages: 1 -->
<svg width="123pt" height="196pt"
 viewBox="0.00 0.00 123.00 196.00" xmlns="http://www.w3.org/2000/svg" xmlns:xlink="http://www.w3.org/1999/xlink">
<g id="graph0" class="graph" transform="scale(1 1) rotate(0) translate(4 192)">
<title>prbs/prbs.h</title>
<!-- Node1 -->
<g id="node1" class="node">
<title>Node1</title>
<g id="a_node1"><a xlink:title="Interface and usage of prbs generators.">
<polygon fill="#bfbfbf" stroke="black" points="0,-168.5 0,-187.5 71,-187.5 71,-168.5 0,-168.5"/>
<text text-anchor="middle" x="35.5" y="-175.5" font-family="Helvetica,sans-Serif" font-size="10.00">prbs/prbs.h</text>
</a>
</g>
</g>
<!-- Node2 -->
<g id="node2" class="node">
<title>Node2</title>
<g id="a_node2"><a xlink:href="lfsr_8h.html" target="_top" xlink:title="Interface and usage of the lfsr prbs generator.">
<polygon fill="none" stroke="black" points="15,-56.5 15,-75.5 56,-75.5 56,-56.5 15,-56.5"/>
<text text-anchor="middle" x="35.5" y="-63.5" font-family="Helvetica,sans-Serif" font-size="10.00">lfsr.h</text>
</a>
</g>
</g>
<!-- Node1&#45;&gt;Node2 -->
<g id="edge1" class="edge">
<title>Node1&#45;&gt;Node2</title>
<path fill="none" stroke="midnightblue" d="M27.61,-168.43C17.38,-156.24 1.49,-133.03 7.5,-112 10.4,-101.84 16.33,-91.75 21.99,-83.7"/>
<polygon fill="midnightblue" stroke="midnightblue" points="24.88,-85.69 28.09,-75.59 19.28,-81.48 24.88,-85.69"/>
</g>
<!-- Node4 -->
<g id="node4" class="node">
<title>Node4</title>
<g id="a_node4"><a xlink:href="sg_8h.html" target="_top" xlink:title="Interface and usage of the shrinking prbs generator.">
<polygon fill="none" stroke="black" points="17,-112.5 17,-131.5 54,-131.5 54,-112.5 17,-112.5"/>
<text text-anchor="middle" x="35.5" y="-119.5" font-family="Helvetica,sans-Serif" font-size="10.00">sg.h</text>
</a>
</g>
</g>
<!-- Node1&#45;&gt;Node4 -->
<g id="edge3" class="edge">
<title>Node1&#45;&gt;Node4</title>
<path fill="none" stroke="midnightblue" d="M35.5,-168.08C35.5,-161.01 35.5,-150.86 35.5,-141.99"/>
<polygon fill="midnightblue" stroke="midnightblue" points="39,-141.75 35.5,-131.75 32,-141.75 39,-141.75"/>
</g>
<!-- Node5 -->
<g id="node5" class="node">
<title>Node5</title>
<g id="a_node5"><a xlink:href="asg_8h.html" target="_top" xlink:title="Interface and usage of the alternating step prbs generator.">
<polygon fill="none" stroke="black" points="72,-112.5 72,-131.5 115,-131.5 115,-112.5 72,-112.5"/>
<text text-anchor="middle" x="93.5" y="-119.5" font-family="Helvetica,sans-Serif" font-size="10.00">asg.h</text>
</a>
</g>
</g>
<!-- Node1&#45;&gt;Node5 -->
<g id="edge5" class="edge">
<title>Node1&#45;&gt;Node5</title>
<path fill="none" stroke="midnightblue" d="M44.82,-168.32C53.39,-160.34 66.31,-148.31 76.69,-138.65"/>
<polygon fill="midnightblue" stroke="midnightblue" points="79.08,-141.21 84.01,-131.83 74.31,-136.09 79.08,-141.21"/>
</g>
<!-- Node3 -->
<g id="node3" class="node">
<title>Node3</title>
<g id="a_node3"><a xlink:title=" ">
<polygon fill="none" stroke="#bfbfbf" points="9,-0.5 9,-19.5 62,-19.5 62,-0.5 9,-0.5"/>
<text text-anchor="middle" x="35.5" y="-7.5" font-family="Helvetica,sans-Serif" font-size="10.00">stdint.h</text>
</a>
</g>
</g>
<!-- Node2&#45;&gt;Node3 -->
<g id="edge2" class="edge">
<title>Node2&#45;&gt;Node3</title>
<path fill="none" stroke="midnightblue" d="M35.5,-56.08C35.5,-49.01 35.5,-38.86 35.5,-29.99"/>
<polygon fill="midnightblue" stroke="midnightblue" points="39,-29.75 35.5,-19.75 32,-29.75 39,-29.75"/>
</g>
<!-- Node4&#45;&gt;Node2 -->
<g id="edge4" class="edge">
<title>Node4&#45;&gt;Node2</title>
<path fill="none" stroke="midnightblue" d="M35.5,-112.08C35.5,-105.01 35.5,-94.86 35.5,-85.99"/>
<polygon fill="midnightblue" stroke="midnightblue" points="39,-85.75 35.5,-75.75 32,-85.75 39,-85.75"/>
</g>
<!-- Node5&#45;&gt;Node2 -->
<g id="edge6" class="edge">
<title>Node5&#45;&gt;Node2</title>
<path fill="none" stroke="midnightblue" d="M84.18,-112.32C75.61,-104.34 62.69,-92.31 52.31,-82.65"/>
<polygon fill="midnightblue" stroke="midnightblue" points="54.69,-80.09 44.99,-75.83 49.92,-85.21 54.69,-80.09"/>
</g>
</g>
</svg>
