<?xml version="1.0" encoding="UTF-8" standalone="no"?>
<!DOCTYPE svg PUBLIC "-//W3C//DTD SVG 1.1//EN"
 "http://www.w3.org/Graphics/SVG/1.1/DTD/svg11.dtd">
<!-- Generated by graphviz version 2.43.0 (0)
 -->
<!-- Title: prbs/prbs.c Pages: 1 -->
<svg width="257pt" height="252pt"
 viewBox="0.00 0.00 256.64 252.00" xmlns="http://www.w3.org/2000/svg" xmlns:xlink="http://www.w3.org/1999/xlink">
<g id="graph0" class="graph" transform="scale(1 1) rotate(0) translate(4 248)">
<title>prbs/prbs.c</title>
<!-- Node1 -->
<g id="node1" class="node">
<title>Node1</title>
<g id="a_node1"><a xlink:title="PRBS library descriptor.">
<polygon fill="#bfbfbf" stroke="black" points="63.64,-224.5 63.64,-243.5 133.64,-243.5 133.64,-224.5 63.64,-224.5"/>
<text text-anchor="middle" x="98.64" y="-231.5" font-family="Helvetica,sans-Serif" font-size="10.00">prbs/prbs.c</text>
</a>
</g>
</g>
<!-- Node2 -->
<g id="node2" class="node">
<title>Node2</title>
<g id="a_node2"><a xlink:href="prbs_8h.html" target="_top" xlink:title="Interface and usage of prbs generators.">
<polygon fill="none" stroke="black" points="6.14,-168.5 6.14,-187.5 53.14,-187.5 53.14,-168.5 6.14,-168.5"/>
<text text-anchor="middle" x="29.64" y="-175.5" font-family="Helvetica,sans-Serif" font-size="10.00">prbs.h</text>
</a>
</g>
</g>
<!-- Node1&#45;&gt;Node2 -->
<g id="edge1" class="edge">
<title>Node1&#45;&gt;Node2</title>
<path fill="none" stroke="midnightblue" d="M87.55,-224.32C77.15,-216.18 61.38,-203.84 48.91,-194.09"/>
<polygon fill="midnightblue" stroke="midnightblue" points="50.96,-191.24 40.92,-187.83 46.64,-196.75 50.96,-191.24"/>
</g>
<!-- Node7 -->
<g id="node7" class="node">
<title>Node7</title>
<g id="a_node7"><a xlink:href="config_8h_source.html" target="_top" xlink:title=" ">
<polygon fill="none" stroke="black" points="71.14,-168.5 71.14,-187.5 126.14,-187.5 126.14,-168.5 71.14,-168.5"/>
<text text-anchor="middle" x="98.64" y="-175.5" font-family="Helvetica,sans-Serif" font-size="10.00">config.h</text>
</a>
</g>
</g>
<!-- Node1&#45;&gt;Node7 -->
<g id="edge8" class="edge">
<title>Node1&#45;&gt;Node7</title>
<path fill="none" stroke="midnightblue" d="M98.64,-224.08C98.64,-217.01 98.64,-206.86 98.64,-197.99"/>
<polygon fill="midnightblue" stroke="midnightblue" points="102.14,-197.75 98.64,-187.75 95.14,-197.75 102.14,-197.75"/>
</g>
<!-- Node8 -->
<g id="node8" class="node">
<title>Node8</title>
<g id="a_node8"><a xlink:title=" ">
<polygon fill="none" stroke="#bfbfbf" points="144.64,-168.5 144.64,-187.5 248.64,-187.5 248.64,-168.5 144.64,-168.5"/>
<text text-anchor="middle" x="196.64" y="-175.5" font-family="Helvetica,sans-Serif" font-size="10.00">ucdm/descriptor.h</text>
</a>
</g>
</g>
<!-- Node1&#45;&gt;Node8 -->
<g id="edge9" class="edge">
<title>Node1&#45;&gt;Node8</title>
<path fill="none" stroke="midnightblue" d="M114.38,-224.32C129.95,-215.74 154.01,-202.49 172.1,-192.52"/>
<polygon fill="midnightblue" stroke="midnightblue" points="173.86,-195.55 180.93,-187.65 170.48,-189.42 173.86,-195.55"/>
</g>
<!-- Node3 -->
<g id="node3" class="node">
<title>Node3</title>
<g id="a_node3"><a xlink:href="lfsr_8h.html" target="_top" xlink:title="Interface and usage of the lfsr prbs generator.">
<polygon fill="none" stroke="black" points="9.14,-56.5 9.14,-75.5 50.14,-75.5 50.14,-56.5 9.14,-56.5"/>
<text text-anchor="middle" x="29.64" y="-63.5" font-family="Helvetica,sans-Serif" font-size="10.00">lfsr.h</text>
</a>
</g>
</g>
<!-- Node2&#45;&gt;Node3 -->
<g id="edge2" class="edge">
<title>Node2&#45;&gt;Node3</title>
<path fill="none" stroke="midnightblue" d="M21.75,-168.43C11.51,-156.24 -4.37,-133.03 1.64,-112 4.54,-101.84 10.47,-91.75 16.13,-83.7"/>
<polygon fill="midnightblue" stroke="midnightblue" points="19.01,-85.69 22.22,-75.59 13.42,-81.48 19.01,-85.69"/>
</g>
<!-- Node5 -->
<g id="node5" class="node">
<title>Node5</title>
<g id="a_node5"><a xlink:href="sg_8h.html" target="_top" xlink:title="Interface and usage of the shrinking prbs generator.">
<polygon fill="none" stroke="black" points="11.14,-112.5 11.14,-131.5 48.14,-131.5 48.14,-112.5 11.14,-112.5"/>
<text text-anchor="middle" x="29.64" y="-119.5" font-family="Helvetica,sans-Serif" font-size="10.00">sg.h</text>
</a>
</g>
</g>
<!-- Node2&#45;&gt;Node5 -->
<g id="edge4" class="edge">
<title>Node2&#45;&gt;Node5</title>
<path fill="none" stroke="midnightblue" d="M29.64,-168.08C29.64,-161.01 29.64,-150.86 29.64,-141.99"/>
<polygon fill="midnightblue" stroke="midnightblue" points="33.14,-141.75 29.64,-131.75 26.14,-141.75 33.14,-141.75"/>
</g>
<!-- Node6 -->
<g id="node6" class="node">
<title>Node6</title>
<g id="a_node6"><a xlink:href="asg_8h.html" target="_top" xlink:title="Interface and usage of the alternating step prbs generator.">
<polygon fill="none" stroke="black" points="66.14,-112.5 66.14,-131.5 109.14,-131.5 109.14,-112.5 66.14,-112.5"/>
<text text-anchor="middle" x="87.64" y="-119.5" font-family="Helvetica,sans-Serif" font-size="10.00">asg.h</text>
</a>
</g>
</g>
<!-- Node2&#45;&gt;Node6 -->
<g id="edge6" class="edge">
<title>Node2&#45;&gt;Node6</title>
<path fill="none" stroke="midnightblue" d="M38.95,-168.32C47.53,-160.34 60.45,-148.31 70.82,-138.65"/>
<polygon fill="midnightblue" stroke="midnightblue" points="73.21,-141.21 78.15,-131.83 68.44,-136.09 73.21,-141.21"/>
</g>
<!-- Node4 -->
<g id="node4" class="node">
<title>Node4</title>
<g id="a_node4"><a xlink:title=" ">
<polygon fill="none" stroke="#bfbfbf" points="3.14,-0.5 3.14,-19.5 56.14,-19.5 56.14,-0.5 3.14,-0.5"/>
<text text-anchor="middle" x="29.64" y="-7.5" font-family="Helvetica,sans-Serif" font-size="10.00">stdint.h</text>
</a>
</g>
</g>
<!-- Node3&#45;&gt;Node4 -->
<g id="edge3" class="edge">
<title>Node3&#45;&gt;Node4</title>
<path fill="none" stroke="midnightblue" d="M29.64,-56.08C29.64,-49.01 29.64,-38.86 29.64,-29.99"/>
<polygon fill="midnightblue" stroke="midnightblue" points="33.14,-29.75 29.64,-19.75 26.14,-29.75 33.14,-29.75"/>
</g>
<!-- Node5&#45;&gt;Node3 -->
<g id="edge5" class="edge">
<title>Node5&#45;&gt;Node3</title>
<path fill="none" stroke="midnightblue" d="M29.64,-112.08C29.64,-105.01 29.64,-94.86 29.64,-85.99"/>
<polygon fill="midnightblue" stroke="midnightblue" points="33.14,-85.75 29.64,-75.75 26.14,-85.75 33.14,-85.75"/>
</g>
<!-- Node6&#45;&gt;Node3 -->
<g id="edge7" class="edge">
<title>Node6&#45;&gt;Node3</title>
<path fill="none" stroke="midnightblue" d="M78.32,-112.32C69.74,-104.34 56.82,-92.31 46.45,-82.65"/>
<polygon fill="midnightblue" stroke="midnightblue" points="48.83,-80.09 39.12,-75.83 44.06,-85.21 48.83,-80.09"/>
</g>
</g>
</svg>
