<?xml version="1.0" encoding="UTF-8" standalone="no"?>
<!DOCTYPE svg PUBLIC "-//W3C//DTD SVG 1.1//EN"
 "http://www.w3.org/Graphics/SVG/1.1/DTD/svg11.dtd">
<!-- Generated by graphviz version 2.43.0 (0)
 -->
<!-- Title: sg_lfsr32_cGetNextByte Pages: 1 -->
<svg width="450pt" height="28pt"
 viewBox="0.00 0.00 450.00 28.00" xmlns="http://www.w3.org/2000/svg" xmlns:xlink="http://www.w3.org/1999/xlink">
<g id="graph0" class="graph" transform="scale(1 1) rotate(0) translate(4 24)">
<title>sg_lfsr32_cGetNextByte</title>
<!-- Node1 -->
<g id="node1" class="node">
<title>Node1</title>
<g id="a_node1"><a xlink:title="Get the next byte in the SG32 pseudo random binary sequence.">
<polygon fill="#bfbfbf" stroke="black" points="0,-0.5 0,-19.5 134,-19.5 134,-0.5 0,-0.5"/>
<text text-anchor="middle" x="67" y="-7.5" font-family="Helvetica,sans-Serif" font-size="10.00">sg_lfsr32_cGetNextByte</text>
</a>
</g>
</g>
<!-- Node2 -->
<g id="node2" class="node">
<title>Node2</title>
<g id="a_node2"><a xlink:href="sg_8c.html#a08f52b71e53271dce84626c70796c008" target="_top" xlink:title="Get the next bit in the SG32 pseudo random binary sequence.">
<polygon fill="none" stroke="black" points="170,-0.5 170,-19.5 296,-19.5 296,-0.5 170,-0.5"/>
<text text-anchor="middle" x="233" y="-7.5" font-family="Helvetica,sans-Serif" font-size="10.00">sg_lfsr32_bGetNextBit</text>
</a>
</g>
</g>
<!-- Node1&#45;&gt;Node2 -->
<g id="edge1" class="edge">
<title>Node1&#45;&gt;Node2</title>
<path fill="none" stroke="midnightblue" d="M134.23,-10C142.57,-10 151.14,-10 159.58,-10"/>
<polygon fill="midnightblue" stroke="midnightblue" points="159.77,-13.5 169.77,-10 159.77,-6.5 159.77,-13.5"/>
</g>
<!-- Node3 -->
<g id="node3" class="node">
<title>Node3</title>
<g id="a_node3"><a xlink:href="lfsr_8c.html#a8707278949b959bb80efb5eac123b072" target="_top" xlink:title="Get the next bit in the LFSR32 pseudo random binary sequence.">
<polygon fill="none" stroke="black" points="332,-0.5 332,-19.5 442,-19.5 442,-0.5 332,-0.5"/>
<text text-anchor="middle" x="387" y="-7.5" font-family="Helvetica,sans-Serif" font-size="10.00">lfsr32_bGetNextBit</text>
</a>
</g>
</g>
<!-- Node2&#45;&gt;Node3 -->
<g id="edge2" class="edge">
<title>Node2&#45;&gt;Node3</title>
<path fill="none" stroke="midnightblue" d="M296.26,-10C304.66,-10 313.28,-10 321.71,-10"/>
<polygon fill="midnightblue" stroke="midnightblue" points="321.86,-13.5 331.86,-10 321.86,-6.5 321.86,-13.5"/>
</g>
</g>
</svg>
