<?xml version="1.0" encoding="UTF-8" standalone="no"?>
<!DOCTYPE svg PUBLIC "-//W3C//DTD SVG 1.1//EN"
 "http://www.w3.org/Graphics/SVG/1.1/DTD/svg11.dtd">
<!-- Generated by graphviz version 2.43.0 (0)
 -->
<!-- Title: prbs/sg.h Pages: 1 -->
<svg width="158pt" height="140pt"
 viewBox="0.00 0.00 157.50 140.00" xmlns="http://www.w3.org/2000/svg" xmlns:xlink="http://www.w3.org/1999/xlink">
<g id="graph0" class="graph" transform="scale(1 1) rotate(0) translate(4 136)">
<title>prbs/sg.h</title>
<!-- Node1 -->
<g id="node1" class="node">
<title>Node1</title>
<g id="a_node1"><a xlink:title="Interface and usage of the shrinking prbs generator.">
<polygon fill="#bfbfbf" stroke="black" points="47,-112.5 47,-131.5 108,-131.5 108,-112.5 47,-112.5"/>
<text text-anchor="middle" x="77.5" y="-119.5" font-family="Helvetica,sans-Serif" font-size="10.00">prbs/sg.h</text>
</a>
</g>
</g>
<!-- Node2 -->
<g id="node2" class="node">
<title>Node2</title>
<g id="a_node2"><a xlink:href="prbs_8h.html" target="_top" xlink:title="Interface and usage of prbs generators.">
<polygon fill="none" stroke="black" points="0,-56.5 0,-75.5 71,-75.5 71,-56.5 0,-56.5"/>
<text text-anchor="middle" x="35.5" y="-63.5" font-family="Helvetica,sans-Serif" font-size="10.00">prbs/prbs.h</text>
</a>
</g>
</g>
<!-- Node1&#45;&gt;Node2 -->
<g id="edge1" class="edge">
<title>Node1&#45;&gt;Node2</title>
<path fill="none" stroke="midnightblue" d="M64.39,-104.14C57.07,-94.74 48.26,-83.4 42.31,-75.75"/>
<polygon fill="midnightblue" stroke="midnightblue" points="61.66,-106.34 70.56,-112.08 67.19,-102.04 61.66,-106.34"/>
</g>
<!-- Node4 -->
<g id="node4" class="node">
<title>Node4</title>
<g id="a_node4"><a xlink:href="sg_8c.html" target="_top" xlink:title="Implementation of the SG prbs generator.">
<polygon fill="none" stroke="black" points="89.5,-56.5 89.5,-75.5 149.5,-75.5 149.5,-56.5 89.5,-56.5"/>
<text text-anchor="middle" x="119.5" y="-63.5" font-family="Helvetica,sans-Serif" font-size="10.00">prbs/sg.c</text>
</a>
</g>
</g>
<!-- Node1&#45;&gt;Node4 -->
<g id="edge3" class="edge">
<title>Node1&#45;&gt;Node4</title>
<path fill="none" stroke="midnightblue" d="M90.61,-104.14C97.93,-94.74 106.74,-83.4 112.69,-75.75"/>
<polygon fill="midnightblue" stroke="midnightblue" points="87.81,-102.04 84.44,-112.08 93.34,-106.34 87.81,-102.04"/>
</g>
<!-- Node3 -->
<g id="node3" class="node">
<title>Node3</title>
<g id="a_node3"><a xlink:href="prbs_8c.html" target="_top" xlink:title="PRBS library descriptor.">
<polygon fill="none" stroke="black" points="0.5,-0.5 0.5,-19.5 70.5,-19.5 70.5,-0.5 0.5,-0.5"/>
<text text-anchor="middle" x="35.5" y="-7.5" font-family="Helvetica,sans-Serif" font-size="10.00">prbs/prbs.c</text>
</a>
</g>
</g>
<!-- Node2&#45;&gt;Node3 -->
<g id="edge2" class="edge">
<title>Node2&#45;&gt;Node3</title>
<path fill="none" stroke="midnightblue" d="M35.5,-45.8C35.5,-36.91 35.5,-26.78 35.5,-19.75"/>
<polygon fill="midnightblue" stroke="midnightblue" points="32,-46.08 35.5,-56.08 39,-46.08 32,-46.08"/>
</g>
</g>
</svg>
